# xmcd CD database file
#
# Track frame offsets:
#	150
#	21631
#	55782
#	68862
#	89260
#	121660
#	151307
#
# Disc length: 2348 seconds
#
# Revision: 0
# Processed by: cddbd v1.5.2PL0 Copyright (c) Steve Scherf et al.
# Submitted via: CDex 1.51
#
DISCID=54092a07
DTITLE=Charlie Mariano - Helen 12 Trees
DYEAR=1976
DGENRE=Jazz
TTITLE0=Helen 12 Trees
TTITLE1=Parvati's Dance
TTITLE2=Sleep My Love
TTITLE3=Thorn of a White Rose
TTITLE4=Neverglades Pixie
TTITLE5=Charlotte
TTITLE6=Avoid the Year of the Monkey
EXTD=YEAR: 1976
EXTT0=
EXTT1=
EXTT2=
EXTT3=
EXTT4=
EXTT5=
EXTT6=
PLAYORDER=
